<?xml version="1.0" standalone="no"?>
<!DOCTYPE svg PUBLIC "-//W3C//DTD SVG 20010904//EN"
 "http://www.w3.org/TR/2001/REC-SVG-20010904/DTD/svg10.dtd">
<svg version="1.0" xmlns="http://www.w3.org/2000/svg"
 width="418.000000pt" height="418.000000pt" viewBox="0 0 418.000000 418.000000"
 preserveAspectRatio="xMidYMid meet">
<metadata>
Created by potrace 1.11, written by Peter Selinger 2001-2013
</metadata>
<g transform="translate(0.000000,418.000000) scale(0.100000,-0.100000)"
fill="#000000" stroke="none">
<path d="M2817 3954 c-1 -1 -31 -5 -67 -8 -117 -12 -172 -21 -305 -52 -11 -3
-30 -7 -43 -10 -56 -11 -252 -88 -341 -133 -150 -75 -284 -173 -378 -276 -63
-68 -140 -178 -163 -231 -14 -31 -14 -31 -69 -26 -74 8 -450 7 -526 -1 -522
-58 -824 -254 -900 -581 -68 -293 38 -604 294 -863 172 -175 389 -316 687
-448 76 -34 79 -31 14 11 -157 99 -187 119 -211 138 -14 12 -41 32 -59 46 -93
69 -229 196 -305 284 -163 190 -235 365 -237 576 -3 335 161 557 482 654 132
40 246 64 380 81 25 3 68 8 95 10 64 7 366 7 372 1 3 -2 30 23 61 57 149 163
276 271 364 312 64 30 92 31 118 5 17 -17 19 -29 14 -78 -3 -31 -8 -60 -10
-63 -2 -4 -6 -24 -9 -45 -3 -22 -7 -50 -10 -64 -12 -58 -15 -149 -6 -173 8
-19 21 -29 53 -37 223 -56 391 -171 459 -313 17 -37 43 -78 57 -93 40 -39 187
-106 387 -174 303 -104 391 -142 451 -194 48 -43 50 -75 6 -150 -48 -83 -124
-177 -169 -212 -21 -15 -40 -30 -43 -34 -11 -12 -88 -58 -135 -79 -118 -55
-253 -79 -423 -75 -111 2 -264 16 -327 28 -11 2 -40 7 -65 10 -25 4 -79 13
-120 20 -115 20 -239 20 -291 0 -86 -33 -288 -202 -309 -258 -16 -45 12 -123
71 -193 27 -32 60 -72 75 -90 14 -18 41 -72 59 -121 43 -115 73 -162 137 -212
137 -106 157 -146 224 -429 4 -14 9 -73 13 -131 3 -58 10 -111 14 -118 15 -22
51 -8 232 96 166 95 461 298 600 413 173 143 369 331 511 490 152 169 328 435
431 649 140 292 216 615 216 920 0 218 -32 377 -109 539 -156 330 -440 526
-879 606 -53 10 -360 25 -368 19z m-797 -2733 c17 -16 27 -36 25 -47 -2 -10
-4 -24 -4 -31 -2 -23 -45 -53 -76 -53 -79 0 -109 99 -46 147 28 22 70 15 101
-16z"/>
<path d="M2326 2644 c-31 -32 -34 -71 -6 -107 54 -69 162 -23 146 63 -2 14 -5
28 -5 32 -2 12 -58 38 -84 38 -13 0 -36 -12 -51 -26z"/>
</g>
</svg>
