<svg xmlns="http://www.w3.org/2000/svg" viewBox="0 0 100.01 89.72"><defs><style>.cls-1{fill:#dc6836;}</style></defs><title>Asset 1</title><g id="Layer_2" data-name="Layer 2"><g id="Layer_1-2" data-name="Layer 1"><path class="cls-1" d="M36,17.8S0,13.06,0,35.8c0,19,26,28,26,28s-19-10-21-23c-.92-6,.36-15.15,10.33-18.47A56.8,56.8,0,0,1,37,19.8S46.77,8,50,10.8c1.16,1-2.43,10.42,0,10.93,4,.85,10.18,3.35,11.95,8.43C63,33.29,70,34.8,78,37.8s6.08,4.76,5.3,6.19c-2.58,4.74-7.87,9.92-17.86,9.78-8.89-.12-14-2.15-18.13-1.88-2.1.14-3.3,1.06-5,2.41-2.12,1.69-4.9,3.56-4.37,5.57C38.67,62.61,41,64.3,42,65.8c1.3,2,1.14,5.69,5,8,3,1.79,3.63,5.5,4.74,10.25.55,2.37-.2,5.14.74,5.61.33.17,1-.09,1.85-.54,7.57-4,44.76-25.29,45.66-60.32C101-10.2,46-5.2,36,17.8Zm11,51a2,2,0,1,1,2-2A2,2,0,0,1,47,68.8Z"/><circle class="cls-1" cx="57.11" cy="32.8" r="2"/></g></g></svg>